<svg xmlns="http://www.w3.org/2000/svg" viewBox="0 0 223 223.36"><g id="Capa_2" data-name="Capa 2"><g id="Capa_1-2" data-name="Capa 1"><path d="M223,111.66c1.8,60.06-49.63,112.1-112,111.7C50,223,0,172.73,0,110.94,0,50.33,50.51.33,111.39,0,173.82-.34,224.82,52.14,223,111.66Zm-110.2,23.48L154,179.07c7.63-7.76,14.44-14.56,21-21.59.61-.65.25-3.16-.53-4-4.72-5.16-9.63-10.14-14.59-15.07-8.12-8-16.33-16-26-25.51l43.34-41.47C170.05,64.52,163.43,58,156.53,51.7c-.88-.8-3.83-.66-4.79.2-5.07,4.49-9.92,9.34-14.71,14.24-8.06,8.15-16,16.39-25.19,25.75L71.9,49.36,47.16,72.93l43.66,41.15c-3,2.18-5,3.23-6.52,4.73-11.08,11.06-22.14,22.15-33,33.4-1.16,1.21-2.26,4.43-1.63,5.13,6.51,7.24,13.38,14.15,20.88,21.9Z"/></g></g></svg>