<svg xmlns="http://www.w3.org/2000/svg" viewBox="0 0 293.85 392.7"><g id="Capa_2" data-name="Capa 2"><g id="Capa_1-2" data-name="Capa 1"><g id="Capa_1-2-2" data-name="Capa 1-2"><path d="M277,78.68C240.33,9.43,156.1-19.57,85.18,13.93,35.07,37.65,6.71,78.1.76,133.44c-3.2,30.22,4,59,15,86.85,12.11,30.54,28.72,58.58,47.89,85.13,21.11,29.11,44.44,56.24,71,80.51,9.93,9.07,14.6,9,24.41-.05,6.24-5.73,12.43-11.61,18.31-17.73,39-40.5,72.5-84.86,95.79-136.35,12.19-27,20.12-55,20.68-83.89A149,149,0,0,0,277,78.68Zm-130.36,160c-48.22.09-88.06-39.27-88-87a89.39,89.39,0,0,1,7.9-36.79,43.5,43.5,0,1,0,68.37-51.18,86.81,86.81,0,0,1,11.23-.75c49.3-.12,89.08,39.23,89.08,88.23C235.2,199.57,195.71,238.6,146.65,238.7Z"/></g></g></g></svg>