<svg xmlns="http://www.w3.org/2000/svg" viewBox="0 0 469.14 469.44"><g id="Capa_2" data-name="Capa 2"><g id="Capa_1-2" data-name="Capa 1"><path d="M330.44,353.66c-2.16-2.07-3.48-3.28-4.74-4.54q-58.24-58.23-116.47-116.47c-6.08-6.09-12.79-10-21.8-8-14,3.07-21.05,19-13.7,31.22a33,33,0,0,0,5,6.21Q256.83,340.29,335,418.44c6.55,6.55,14.11,10.2,23.4,6.94,8.22-2.87,13.05-8.86,14.13-17.62a49.68,49.68,0,0,0,.28-6c-.14-74.53.17-149.06-.65-223.59-.44-39.71-3.17-79.43-14.89-117.75-4-13.1-10.08-25.56-15.22-38.3-1.6-4-3.59-7.86-4.76-12-1.55-5.42.31-8,5.84-9.35a2.18,2.18,0,0,1,.48-.14c22.36,0,45-3.16,66.82,4a85.28,85.28,0,0,1,58.6,81.36q.19,99.08,0,198.14,0,48.41,0,96.82c0,43.24-28.23,77.88-70.7,86.64a75.47,75.47,0,0,1-14.84,1.5q-66.65.15-133.28,0c-15.14-.07-30.23-1.26-44.79-5.95-22.51-7.26-36.62-23.25-45.68-44.35-8.13-18.91-12.21-38.89-15-59.15-5.3-38.81-6.23-77.85-6.11-116.95.12-40.1,0-80.19,0-120.28V116c1.92,1.78,3.23,2.9,4.44,4.11q59.49,59.46,118.92,119c5.78,5.79,12.42,8.58,20.3,6.34,8.29-2.35,13.48-8.2,15.6-16.61,1.47-5.85.11-11.24-3.18-16.11a44.11,44.11,0,0,0-5.5-6.42q-76.92-77-153.87-153.9c-5.05-5-10.46-9.26-18-9.32A20.79,20.79,0,0,0,96.67,61.44a62.46,62.46,0,0,0-.36,7c.15,73-.19,146.07.69,219.1.51,41.88,3.67,83.71,15.91,124.13,3.77,12.47,9.7,24.27,14.56,36.41a84.23,84.23,0,0,1,4.31,12.1c1,4.37-1,7.39-5.64,8.34a7.22,7.22,0,0,1-1.44.4C102,468.75,79.1,472,57,464.25,23.94,452.76.27,420.59.19,385.59Q-.16,234.86.2,84.13c.12-42.47,33.1-78.26,75.43-83A93.79,93.79,0,0,1,86.06.33C130,.28,173.92.08,217.85.46a214.33,214.33,0,0,1,35.66,3.3c27.33,4.91,45.19,21.75,55.85,46.85,8.11,19.1,12.25,39.21,15,59.64,5.44,40,6.21,80.19,6.08,120.45-.13,38.76,0,77.53,0,116.29Z"/></g></g></svg>