<?xml version="1.0" encoding="utf-8"?>
<!-- Generator: Adobe Illustrator 24.3.0, SVG Export Plug-In . SVG Version: 6.00 Build 0)  -->
<svg version="1.1" id="Capa_1" xmlns="http://www.w3.org/2000/svg" xmlns:xlink="http://www.w3.org/1999/xlink" x="0px" y="0px"
	 viewBox="0 0 384 384" enable-background="new 0 0 384 384" xml:space="preserve">
<g id="Capa_2_1_">
	<g id="Capa_1-2">
		<path fill="#030303" d="M0,207v-30.8c0.3-0.6,0.6-1.2,0.8-1.9c1-6.5,1.7-13.1,2.9-19.6C18.5,76,84,13.6,163.6,2.1
			c4.2-0.6,8.4-1.4,12.6-2.1H207c0.4,0.3,0.9,0.6,1.5,0.7c6.9,1,13.9,1.6,20.7,3C309,19.3,370.2,83.6,381.9,164
			c0.6,4.4,1.4,8.7,2.1,13v30.8c-0.3,0.7-0.6,1.5-0.8,2.2c-0.8,5.7-1.4,11.4-2.4,17.1c-15,80.7-79.6,142.9-160.8,154.9
			c-4.6,0.7-9.2,1.4-13.8,2.1h-30c-0.6-0.3-1.2-0.6-1.9-0.8c-7.9-1.3-15.8-2.1-23.6-3.8C74.4,363.8,12.8,297.8,2.1,220.4
			C1.5,215.9,0.7,211.5,0,207z M246.6,325.5c3.2,4.2,3.3,5.9-0.1,9.8c-6.6,7.7-13.4,15.3-20.1,23l-12.7,12.7c1,0.1,2.1,0.1,3.1,0
			c35.2-4.9,68.2-20,94.8-43.6c10.5-9.2,10.8-9.2,10-23.2c-0.6-10.1-4.6-18.8-12.7-25.3c-4.1-2.3-8-5-12.3-6.8
			c-5.9-2.4-12-4-18.1-5.9c-3.9-1.2-8.7-3.9-11.6-2.7s-4.2,6.7-6.1,10.3c-2.6,5-2.6,5.3,1.5,9.3c6.9,6.9,7.9,11.9,4.2,20.9
			c-0.7,1.7-1.5,3.4-2.4,5.1c-2.5,4.8-4.1,5.5-9.2,4.1c-2.6-2.8-2.9-5.9-0.9-9.2c1-1.6,1.6-3.4,2.4-5.1c1.4-2.9,0.8-5-1.6-7.3
			c-8.7-8.6-9.3-13.5-3.4-24.3c1.6-2.9,3.1-5.9,4.8-9.3l-22.5-10.9c2.7,13.9,2.1,26.9-0.2,39.9c-3.8,22.3-11.3,43.4-20,64.2
			c-0.5,1.2-1,2.5-1.4,3.8c1.2-0.2,2.4-0.9,3.2-1.8c7.3-8.2,14.7-16.3,21.9-24.6C239.9,325.7,242.5,323.7,246.6,325.5z M214.4,64.7
			c-17.2,0-34.4-0.2-51.7-0.1c-19.4,0-34,13.8-35.1,33.1c-0.2,3.8-1.8,6.1-5.5,6.7c-4.7-1.2-5.9-2.9-5.7-7.7
			c1-23.4,20.4-42.9,43.9-43.3c20.4-0.3,40.8-0.2,61.1,0c9.8,0.1,18.5,6.5,21.4,15.8c0.6,2.3,1.1,4.6,1.4,7c0.3,0.1,0.7,0.2,1,0.3
			c13.8,1.1,22.4,10.3,22.4,24.1c0.1,18.3,0.1,36.5,0,54.7c0,7.5-3.3,12.2-10.1,15.1c-1.2,0.6-2.1,1.7-2.5,3
			c-2.1,14.2-7.7,27-18.6,36.2c-6.9,5.8-8.8,11.8-7.8,19.9c0.1,0.4-0.1,0.8,0,1.1c0.4,0.8,0.8,1.9,1.5,2.2
			c16.6,7.7,32.2,17.3,50.1,22.3c11.9,3.4,24.3,6.1,34.6,13.7c11,9.2,17.3,21,18.2,36c0.8-1,1.2-1.5,1.6-2
			c35.4-47,46.9-99.4,32-156.3C351,86.5,312.7,45.4,255,22.6c-19.1-7.5-39.5-11.3-60-11.2c-8.2,0.4-16.5,0.3-24.7,1.3
			c-47.9,6-88.2,27.1-117.9,64.9C5.3,137.5-1.4,203,30.1,272.3c5.3,11.6,12.4,22.1,20.5,32.1c0.3-0.4,0.5-0.6,0.5-0.8
			c2.3-22.5,14.5-37,36-43.2c19.9-5.8,39.3-12.8,57.5-22.9c3.5-1.9,8.4-2.8,10.2-5.7s0.4-7.8,0.6-11.8c0.2-2.1-0.7-4.2-2.5-5.3
			c-13.1-10.1-21.8-25-24-41.4c-0.4-1.3-1.3-2.3-2.6-2.9c-6.5-2.7-9.8-7.5-9.9-14.5c-0.1-10,0-20,0-30c0-4.4,1.3-5.9,5.7-7
			c7.8,1.1,4.7,7.7,5.8,12c8.2,1.1,13.1,0.1,12.5-10.6c-0.2-3.3,0.4-6.7,1.7-9.8c3.9-8.8,13-12.4,22.9-9.4c16.4,4.9,33,5.8,49.6,1
			c1.7-0.4,3.4-0.8,5.1-1.2c9.4-2.7,18.5,0.9,22.1,9.6c1.7,4.1,1.6,9,1.9,13.5c0.4,4.5,2.6,7.1,7.2,7.2c1.7,0,3.4,0,5.3,0
			c0-11.4,0.4-22.4-0.1-33.3c-0.3-6.2-5.2-9.9-11.4-10.2c-7.4-0.4-11.5-4.6-12.3-12c-0.4-2.8-1.6-5.4-3.4-7.6
			C225.2,63.5,219.7,64.5,214.4,64.7z M194.2,216.8c2.1,0,4.2-0.2,6.3-0.4c24.1-4.5,40.2-21.8,43.6-46.8c0.9-6.7,2.4-8.2,8.8-9.8
			c1.3-0.4,3.2-2.1,3.3-3.3c0.4-4.5,0.2-9.1,0.2-14c-2.2,0-4.1,0-6,0c-10.4-0.2-17.8-7.6-17.9-18c0-2,0.1-4,0-6
			c-0.3-5.1-4-7.9-9-6.8c-3,0.7-6,1.7-9,2.5c-9.9,0.7-19.9,2.1-29.8,1.9c-7.4-0.2-14.8-2.1-22-3.9c-7.6-1.8-11.2,0.6-11.2,8.5
			c0,1.5,0,3,0,4.5c-0.1,9.4-7.7,17.1-17.2,17.3c-2.2,0.1-4.4,0-6.8,0c0,1.8,0,3,0,4.2c0,3,0,6,0,9c0,2.5,1.2,3.8,3.8,4.2
			c5.6,1,7.7,3.2,8.3,8.9c1,9.5,3.8,18.3,9.6,26C160.4,209.9,175.2,217.7,194.2,216.8z M169.5,371.8l0.4-1c-0.9-1-1.8-1.9-2.7-2.9
			c-10.5-11.6-21.3-22.9-31.4-34.8c-8-9.4-15-19.7-19.3-31.4c-2.4-6.3-1.2-12,3.6-16.9c1-1,1.9-2,2.9-2.9c1.8-1.4,2.3-4,1-6
			c-1.9-3.6-3.9-7.3-5.6-11c-0.9-2-2.2-2-3.9-1.4c-9.5,3-19.1,5.7-28.5,9.2c-12.8,4.7-20.8,14-23.1,27.6c-0.6,4.8-0.8,9.7-0.6,14.5
			c0.1,1.9,0.8,3.7,2.1,5.1c21.3,21.7,47.9,37.4,77.1,45.7C150.7,368.1,160.2,369.8,169.5,371.8L169.5,371.8z M170.8,355.7l0.9-0.5
			c-0.4-1.1-0.8-2.3-1.2-3.4c-3.9-10.5-8.3-20.9-11.8-31.5c-6.1-18.4-10.7-37.1-10.3-56.8c0.1-5.2,0.8-10.4,1.2-16l-22.1,10.8
			c2.2,4.3,4.2,8,6.1,11.8c4,7.9,3.1,13.8-3,20.1c-0.7,0.7-1.4,1.4-2.1,2.1c-2.2,1.8-2.5,3.9-1.3,6.3c1.8,3.6,3.3,7.3,5.3,10.7
			c7.8,13,17.7,24.4,27.9,35.6C164,348.5,167.4,352.1,170.8,355.7L170.8,355.7z M192.6,263c7-8.3,13.4-16.5,20.6-23.9
			c4.6-4.8,4.9-9.8,4.1-15.9c-16.9,6.8-33.6,6.8-51.2-0.3c0.5,4.4-0.3,9.1,1.7,11.6C175.4,244.3,184,253.4,192.6,263z M187.7,305.4
			c-2.3,8.9-4,17.6-6.8,26c-2.4,7.2-2,13.6,1.7,20.3c3.4,6.1,6,12.7,9.1,19.5c0.4-0.4,0.8-0.9,1.1-1.4c2.5-5.3,4.6-10.8,7.6-15.9
			c4.6-7.9,5.3-15.7,2.2-24.5c-2.8-7.8-4.3-16-6.3-24L187.7,305.4z M184.6,271l-21.9-24.7l-1.4,0.3c-0.5,7-1,14.1-1.6,21.1
			c-0.5,5.6,1.3,10.1,5.2,14.2c2.1,2.2,3.7,2.5,6,0.6C175.3,278.7,179.8,275,184.6,271z M200.6,271c4.6,4,9,7.8,13.5,11.5
			c0.8,0.6,2.9,1.1,3.3,0.6c2.3-2.5,5.8-5.1,6.2-8.1c1.6-9.6,0.9-19.4-2-28.7L200.6,271z M212.2,322l0.8,0.3l8-27.7
			c-2.6,0-4.5,0.1-6.5,0c-3.1-0.3-8.1,4.5-7.4,7.6C208.6,308.8,210.5,315.4,212.2,322z M171,322.2l0.8-0.1c1.7-6.6,4-13.2,4.8-19.9
			c0.3-2.3-3-5.7-5.4-7.2c-1.8-1.2-5-0.2-8.1-0.2C165.8,304.2,168.4,313.2,171,322.2L171,322.2z M181.7,288c5.8,9,15.3,8.6,20.7-0.7
			l-9.9-8.3L181.7,288z M172.1,356.4l-0.1,0.2h0.2L172.1,356.4z M211.8,356.7l0.1-0.2h-0.2L211.8,356.7z"/>
		<path fill="#CAE1FD" d="M314.9,268.8c-10.3-7.6-22.7-10.3-34.6-13.7c-17.8-5.1-33.5-14.7-50.1-22.3c-0.7-0.3-1.1-1.4-1.5-2.2
			c-0.1-0.3,0-0.7,0-1.1c-1.1-8.1,0.9-14.1,7.8-19.9c10.9-9.2,16.4-22,18.6-36.2c0.3-1.3,1.2-2.4,2.5-3c6.7-2.9,10-7.6,10.1-15.1
			c0-18.2,0-36.5,0-54.7c0-13.8-8.6-23-22.4-24.2c-0.3-0.1-0.7-0.2-1-0.3c-0.3-2.4-0.8-4.7-1.4-7c-3-9.4-11.6-15.8-21.5-15.8
			c-20.4-0.1-40.8-0.3-61.1,0c-23.5,0.4-42.9,19.9-43.9,43.3c-0.2,4.8,1.1,6.4,5.7,7.7c-0.1,4.9-0.1,9.8-0.1,14.7
			c-4.4,1.1-5.6,2.6-5.7,7c0,10-0.1,20,0,30c0.1,7,3.4,11.8,9.9,14.5c1.2,0.6,2.2,1.6,2.6,2.9c2.2,16.4,10.9,31.3,24,41.4
			c1.7,1.2,2.7,3.2,2.5,5.3c-0.2,4,1.2,8.8-0.6,11.8s-6.7,3.8-10.2,5.7c-18.2,10-37.6,17.1-57.5,22.9c-21.6,6.3-33.8,20.7-36,43.2
			c0,0.2-0.2,0.4-0.5,0.8c-8.1-10-15.2-20.5-20.5-32.1C-1.4,203,5.3,137.5,52.4,77.6c29.8-37.8,70.1-58.9,117.9-64.9
			c8.1-1,16.4-0.9,24.7-1.3c1,0.8,2.1,1.4,3.3,2c10.1,4,20.4,7.4,30.1,12.1c12.8,6.1,24.4,14.2,35.5,23.3
			c12.6,10.5,23.8,22.7,33.2,36.1c12.3,17.3,21.4,36.6,27.1,57.1c4,14,6.2,28.4,6.5,42.9c0.1,8.2,0.2,16.5-0.8,24.6
			c-1.5,11.4-3.5,22.8-6.3,33.9C321.4,252.1,317.8,260.4,314.9,268.8z"/>
		<path fill="#BDD6F9" d="M314.9,268.8c2.9-8.5,6.5-16.8,8.7-25.4c2.7-11.2,4.8-22.5,6.3-33.9c1-8.1,0.9-16.4,0.8-24.6
			c-0.3-14.5-2.5-28.9-6.5-42.9c-5.6-20.5-14.8-39.8-27.1-57.1c-9.4-13.5-20.6-25.6-33.2-36.1c-11-9.1-22.7-17.1-35.5-23.3
			c-9.7-4.7-20.1-8-30.1-12.1c-1.1-0.6-2.2-1.2-3.3-2c20.5-0.1,40.9,3.7,60,11.2c57.7,22.7,96,63.9,111.7,124
			c14.9,56.9,3.4,109.3-32,156.3c-0.4,0.5-0.7,0.9-1.6,2C332.2,289.8,325.9,278.1,314.9,268.8z"/>
		<path fill="#FDDBCD" d="M194.2,216.8c-19,0.9-33.8-7-45-21.9c-5.8-7.7-8.6-16.5-9.6-26c-0.6-5.6-2.7-7.9-8.3-8.9
			c-2.6-0.4-3.7-1.7-3.8-4.2c0-3,0-6,0-9c0-1.2,0-2.5,0-4.2c2.4,0,4.6,0.1,6.8,0c9.4-0.2,17-7.8,17.2-17.3c0-1.5,0-3,0-4.5
			c0-7.9,3.6-10.4,11.2-8.5c7.2,1.8,14.6,3.7,22,3.9c9.9,0.2,19.8-1.2,29.8-1.9c0,19.5,0,39,0,58.5c0,11.5-3,22.2-9.7,31.6
			C201.6,208.7,197.8,212.6,194.2,216.8z"/>
		<path fill="#497FA8" d="M169.5,371.8c-9.3-2.1-18.8-3.7-27.9-6.3c-29.2-8.3-55.8-24-77.1-45.7c-1.3-1.4-2-3.2-2.1-5.1
			c-0.3-4.9-0.1-9.7,0.6-14.5c2.2-13.6,10.2-22.9,23.1-27.6c9.4-3.4,19-6.1,28.5-9.2c1.7-0.6,3-0.5,3.9,1.4c1.7,3.7,3.7,7.4,5.6,11
			c1.3,2,0.8,4.6-1,6c-1,0.9-2,1.9-2.9,2.9c-4.8,4.8-6,10.5-3.6,16.9c4.4,11.7,11.3,22,19.3,31.4c10.1,11.9,20.9,23.2,31.4,34.8
			c0.9,1,1.8,1.9,2.7,2.9L169.5,371.8z"/>
		<path fill="#365D7C" d="M122,119c0-4.9,0-9.7,0.1-14.6c3.8-0.7,5.3-2.9,5.5-6.7c1.1-19.3,15.8-33,35.1-33.1
			c17.2,0,34.4,0.1,51.7,0.1c0.1,12.5,0.1,25,0.2,37.5c-16.7,4.8-33.2,3.9-49.6-1c-9.9-2.9-19,0.6-22.9,9.4
			c-1.3,3.1-1.9,6.4-1.7,9.8c0.6,10.6-4.4,11.6-12.5,10.6C126.7,126.7,129.9,120,122,119z"/>
		<path fill="#FDC9BC" d="M194.2,216.8c3.5-4.2,7.4-8.1,10.5-12.6c6.7-9.4,9.7-20.1,9.7-31.6c0-19.5,0-39,0-58.4c3-0.8,6-1.8,9-2.5
			c4.9-1.1,8.6,1.8,9,6.8c0.1,2,0,4,0,6c0.1,10.4,7.5,17.8,17.9,18c1.9,0,3.7,0,6,0c0,4.9,0.2,9.4-0.2,14c-0.1,1.2-1.9,2.9-3.3,3.3
			c-6.4,1.7-7.8,3.1-8.8,9.8c-3.5,25-19.6,42.3-43.6,46.8C198.5,216.6,196.4,216.8,194.2,216.8z"/>
		<path fill="#3F6F92" d="M309,279c8.1,6.5,12.1,15.2,12.7,25.3c0.8,13.9,0.5,14-10,23.2C285,351,252,366.2,216.8,371.1
			c-1,0.1-2.1,0.1-3.1,0l12.7-12.7c0.7,0.1,1.6,0.4,2.2,0.1c1.8-0.8,3.5-2,5.2-2.9c14.8-7.7,27.9-17.8,40-29.2
			c10-9.6,18.9-20.2,26.5-31.8C303.6,289.7,306.1,284.2,309,279z"/>
		<path fill="#497FA8" d="M309,279c-2.9,5.2-5.4,10.7-8.7,15.6c-7.6,11.6-16.4,22.3-26.4,31.8c-12.1,11.4-25.2,21.4-40,29.2
			c-1.8,0.9-3.4,2.1-5.2,2.9c-0.6,0.3-1.5-0.1-2.2-0.1c6.7-7.7,13.5-15.2,20.1-23c3.4-4,3.2-5.6,0.1-9.8l8.4-12.2
			c5.1,1.4,6.8,0.7,9.2-4.1c0.8-1.7,1.6-3.4,2.4-5.1c3.7-9,2.7-14-4.2-20.9c-4-4-4.1-4.3-1.5-9.3c1.9-3.6,3.1-9,6.1-10.3
			s7.7,1.5,11.6,2.7c6.1,1.8,12.2,3.5,18.1,5.9C301,274,304.9,276.7,309,279z"/>
		<path fill="#355D7B" d="M255,313.4l-8.4,12.2c-4.1-1.8-6.7,0.2-9.3,3.2c-7.2,8.3-14.6,16.5-21.9,24.6c-0.8,0.9-2,1.6-3.2,1.8
			c0.5-1.3,0.9-2.6,1.4-3.8c8.7-20.7,16.1-41.9,20-64.2c2.2-13,2.9-26,0.2-39.9l22.5,10.9c-1.8,3.4-3.2,6.3-4.8,9.3
			c-5.8,10.8-5.2,15.7,3.4,24.3c2.3,2.3,3,4.4,1.6,7.3c-0.8,1.7-1.4,3.5-2.4,5.1C252.1,307.5,252.4,310.5,255,313.4z"/>
		<path fill="#355C7B" d="M170.8,355.7c-3.4-3.6-6.8-7.2-10.2-10.9c-10.2-11.1-20.2-22.5-27.9-35.6c-2-3.4-3.6-7.1-5.3-10.7
			c-1.2-2.5-0.9-4.6,1.3-6.3c0.7-0.7,1.5-1.4,2.1-2.1c6.1-6.3,7-12.2,3-20.1c-1.9-3.8-3.9-7.5-6.1-11.8l22.1-10.8
			c-0.4,5.6-1.1,10.8-1.2,16c-0.5,19.6,4.2,38.4,10.3,56.8c3.5,10.6,7.8,21,11.8,31.5c0.4,1.1,0.8,2.3,1.2,3.4L170.8,355.7z"/>
		<path fill="#2B4C65" d="M214.6,102.2c-0.1-12.5-0.1-25-0.2-37.5c5.2-0.2,10.8-1.2,14.6,3.5c1.8,2.2,3,4.8,3.4,7.6
			c0.8,7.3,4.9,11.6,12.3,12c6.1,0.3,11.1,4,11.4,10.2c0.5,10.9,0.1,21.9,0.1,33.3c-1.9,0-3.6,0-5.3,0c-4.7-0.1-6.9-2.5-7.2-7.2
			s-0.2-9.4-1.9-13.5c-3.6-8.7-12.7-12.3-22.1-9.6C218,101.4,216.3,101.8,214.6,102.2z"/>
		<path fill="#FBDACB" d="M192.6,263c-8.6-9.6-17.2-18.7-24.9-28.5c-2-2.5-1.1-7.2-1.7-11.6c17.6,7.1,34.3,7.1,51.2,0.3
			c0.8,6,0.6,11.1-4.1,15.9C205.9,246.5,199.6,254.7,192.6,263z"/>
		<path fill="#DE7E84" d="M187.7,305.4h8.5c2,8,3.6,16.2,6.3,24c3.1,8.8,2.3,16.5-2.2,24.5c-2.9,5.1-5,10.6-7.6,15.9
			c-0.3,0.5-0.7,0.9-1.1,1.4c-3.1-6.7-5.7-13.3-9.1-19.5c-3.7-6.7-4-13-1.7-20.3C183.7,323,185.4,314.3,187.7,305.4z"/>
		<path fill="#EFF6FA" d="M184.6,271c-4.8,4-9.3,7.8-13.8,11.6c-2.3,2-3.8,1.6-6-0.6c-3.9-4-5.7-8.6-5.2-14.2
			c0.6-7,1.1-14.1,1.6-21.1l1.4-0.3L184.6,271z"/>
		<path fill="#EFF6FA" d="M200.6,271l21-24.7c2.9,9.3,3.6,19.1,2,28.7c-0.5,3-3.9,5.6-6.2,8.1c-0.4,0.5-2.5,0-3.3-0.6
			C209.6,278.8,205.2,274.9,200.6,271z"/>
		<path fill="#DDEFF7" d="M212.2,322c-1.7-6.6-3.5-13.2-5-19.9c-0.7-3,4.3-7.8,7.4-7.6c1.9,0.2,3.9,0,6.5,0l-8,27.7L212.2,322z"/>
		<path fill="#DEEFF8" d="M171,322.3c-2.6-9-5.2-18.1-7.9-27.5c3.1,0,6.3-0.9,8.1,0.2c2.5,1.6,5.7,5,5.4,7.2
			c-0.8,6.7-3.1,13.3-4.8,19.9L171,322.3z"/>
		<path fill="#D9616C" d="M181.7,288.1l10.9-9.1l9.9,8.4C197,296.7,187.5,297.1,181.7,288.1z"/>
		<polygon fill="#355C7B" points="172.1,356.4 172.2,356.6 172,356.6 		"/>
		<polygon fill="#355D7B" points="211.8,356.7 211.8,356.5 212,356.5 		"/>
	</g>
</g>
</svg>
